<?xml version="1.0" standalone="no"?>
<!DOCTYPE svg PUBLIC "-//W3C//DTD SVG 20010904//EN"
 "http://www.w3.org/TR/2001/REC-SVG-20010904/DTD/svg10.dtd">
<svg version="1.0" xmlns="http://www.w3.org/2000/svg"
 width="128.000000pt" height="128.000000pt" viewBox="0 0 128.000000 128.000000"
 preserveAspectRatio="xMidYMid meet">

<g transform="translate(0.000000,128.000000) scale(0.100000,-0.100000)"
fill="#000000" stroke="none">
<path d="M603 1103 c-7 -2 -13 -11 -13 -19 0 -17 95 -20 106 -3 13 22 -54 38
-93 22z"/>
<path d="M595 1020 c-12 -20 11 -31 56 -28 31 2 44 7 44 18 0 19 -89 27 -100
10z"/>
<path d="M238 475 l3 -325 -111 0 c-85 0 -111 -3 -108 -12 4 -10 89 -14 374
-16 l368 -2 38 -37 c35 -34 39 -36 54 -21 15 15 19 15 50 0 20 -9 34 -23 34
-34 0 -37 93 -38 98 -1 4 29 64 48 93 30 15 -10 23 -7 49 18 30 28 39 58 21
69 -16 11 12 64 36 71 22 5 24 10 21 58 -3 44 -6 52 -23 55 -23 3 -50 58 -34
68 18 11 9 41 -21 69 -26 25 -34 28 -49 18 -13 -8 -29 -9 -54 -2 -43 12 -47
28 -47 195 l0 124 -397 0 -398 0 3 -325z m552 72 c0 -61 -4 -107 -11 -114 -8
-8 -7 -16 1 -29 16 -27 -3 -72 -35 -84 -23 -9 -26 -15 -23 -52 2 -35 7 -44 25
-46 13 -2 25 -14 32 -33 l10 -29 -75 0 -74 0 0 115 c0 108 -1 115 -20 115 -19
0 -20 -7 -20 -115 l0 -115 -115 0 -115 0 0 115 0 115 43 0 c89 0 87 -3 87 129
0 65 3 121 7 124 3 4 69 7 145 7 l138 0 0 -103z m271 -206 c23 -23 29 -38 29
-71 0 -77 -72 -121 -145 -88 -29 13 -55 55 -55 88 0 88 108 133 171 71z"/>
</g>
</svg>
